# xmcd CD database file
#
# Track frame offsets:
#	150
#	31864
#	75305
#	103999
#	128149
#	154019
#	168235
#	188224
#	211957
#	235813
#	258254
#
# Disc length: 3618 seconds
#
# Revision: 0
# Processed by: cddbd v1.5.2PL0 Copyright (c) Steve Scherf et al.
# Submitted via: CDex 1.79
#
DISCID=840e200b
DTITLE=Antoine Berjeaut - WasteLand (feat. Mike Ladd)
DYEAR=2013
DGENRE=Jazz
TTITLE0=Slow Motion (Part I and II)
TTITLE1=High (Part I and II)
TTITLE2=Clouds
TTITLE3=Balcony
TTITLE4=Baroness
TTITLE5=Hornet
TTITLE6=Battle
TTITLE7=Volga to Mississipi
TTITLE8=Entract
TTITLE9=Night Shift
TTITLE10=J.D.
EXTD=YEAR: 2013
EXTT0=
EXTT1=
EXTT2=
EXTT3=
EXTT4=
EXTT5=
EXTT6=
EXTT7=
EXTT8=
EXTT9=
EXTT10=
PLAYORDER=
